<svg width="11" height="15" viewBox="0 0 11 15" fill="none" xmlns="http://www.w3.org/2000/svg">
<path d="M2.59668 3.4917V5.70092C2.59668 6.3849 2.94622 7.02145 3.52337 7.38852L5.52474 8.66138M5.52474 8.66138L7.63664 7.61282C8.31696 7.27504 8.74723 6.58103 8.74723 5.82147V3.4917M5.52474 8.66138V13.1583" stroke="#D9D3C1" stroke-width="1.5"/>
<circle cx="2.59668" cy="2.64478" r="1.75" fill="white" stroke="#D9D3C1"/>
<path d="M10.4971 2.64478C10.4971 3.61127 9.71357 4.39478 8.74707 4.39478C7.78057 4.39478 6.99707 3.61127 6.99707 2.64478C6.99707 1.67828 7.78057 0.894775 8.74707 0.894775C9.71357 0.894775 10.4971 1.67828 10.4971 2.64478Z" fill="white" stroke="#D9D3C1"/>
<path d="M7.42188 12.6411C7.42188 13.6076 6.63837 14.3911 5.67188 14.3911C4.70538 14.3911 3.92188 13.6076 3.92188 12.6411C3.92188 11.6746 4.70538 10.8911 5.67188 10.8911C6.63837 10.8911 7.42188 11.6746 7.42188 12.6411Z" fill="white" stroke="#D9D3C1"/>
</svg>
